<svg width="552" height="510" viewBox="0 0 552 510" fill="none" xmlns="http://www.w3.org/2000/svg">
<path d="M232.026 348.946V411.121H219.776V385.863H191.983V411.121H179.734V348.946H191.983V374.036H219.776V348.946H232.026ZM248.042 411.121V346.412H248.126L282.677 395.409L277.44 394.226L311.906 346.412H312.075V411.121H299.826V374.036L300.587 380.372L279.552 410.277H279.383L257.757 380.372L259.869 374.543V411.121H248.042ZM374.778 405.968C374.102 406.531 372.835 407.292 370.976 408.249C369.174 409.207 366.95 410.051 364.303 410.783C361.656 411.516 358.727 411.853 355.517 411.797C350.617 411.685 346.225 410.812 342.339 409.178C338.509 407.489 335.243 405.208 332.539 402.336C329.892 399.464 327.865 396.169 326.457 392.452C325.049 388.735 324.345 384.765 324.345 380.541C324.345 375.81 325.049 371.473 326.457 367.531C327.921 363.589 329.977 360.182 332.624 357.31C335.327 354.437 338.537 352.213 342.254 350.636C345.971 349.059 350.082 348.27 354.588 348.27C358.755 348.27 362.444 348.834 365.654 349.96C368.864 351.086 371.483 352.297 373.511 353.593L368.695 365.166C367.287 364.096 365.401 362.998 363.035 361.871C360.726 360.689 358.051 360.097 355.01 360.097C352.645 360.097 350.364 360.604 348.168 361.618C346.027 362.575 344.113 363.955 342.423 365.757C340.79 367.559 339.495 369.671 338.537 372.093C337.58 374.458 337.101 377.049 337.101 379.865C337.101 382.85 337.523 385.581 338.368 388.059C339.269 390.537 340.536 392.677 342.17 394.479C343.803 396.225 345.746 397.577 347.999 398.534C350.308 399.492 352.898 399.97 355.77 399.97C359.093 399.97 361.937 399.435 364.303 398.365C366.668 397.295 368.47 396.169 369.709 394.986L374.778 405.968Z" fill="white"/>
<path d="M351.674 223.78C351.674 182.738 385.064 149.348 426.105 149.348C467.147 149.348 500.536 182.738 500.536 223.78C500.536 229.846 499.79 235.74 498.413 241.389C497.028 243.066 495.87 244.975 495.013 247.099C483.427 275.809 455.93 294.361 424.964 294.361C412.962 294.361 403.23 304.091 403.23 316.094V458.99H126.013V313.421C126.013 303.363 119.112 294.62 109.33 292.283C75.2622 284.144 51.4688 253.952 51.4688 218.86C51.4688 177.229 85.3379 143.36 126.969 143.36C130.835 143.36 134.704 143.651 138.467 144.228C149.325 145.89 159.711 139.196 162.681 128.626C175.448 83.1982 217.365 51.4714 264.617 51.4714C289.044 51.4714 311.987 59.5487 330.967 74.8321" stroke="white" stroke-width="15.0181" stroke-miterlimit="10"/>
<path d="M264.615 8.00005C231.393 8.00005 199.942 18.6788 173.664 38.8857C153.013 54.7627 136.759 76.0083 126.754 99.893C61.2537 100.011 8 153.334 8 218.86C8 245.757 17.2317 272.119 33.9941 293.089C46.8143 309.126 63.667 321.597 82.5444 329.225V480.723C82.5444 492.727 92.2748 502.456 104.278 502.456H424.962C436.965 502.456 446.695 492.727 446.695 480.723V339.874C501.921 330.106 544 281.765 544 223.78C544 158.771 491.111 105.882 426.104 105.882C361.095 105.882 308.206 158.771 308.206 223.78C308.206 232.585 309.185 241.372 311.113 249.894" stroke="white" stroke-width="15.0181" stroke-miterlimit="10"/>
</svg>
